<?xml version="1.0" encoding="utf-8"?>
<!-- Generator: Adobe Illustrator 24.1.1, SVG Export Plug-In . SVG Version: 6.00 Build 0)  -->
<svg version="1.1" id="Layer_1" xmlns="http://www.w3.org/2000/svg" xmlns:xlink="http://www.w3.org/1999/xlink" x="0px" y="0px"
	 viewBox="0 0 5000 5000" style="enable-background:new 0 0 5000 5000;" xml:space="preserve">
<style type="text/css">
	.st0{fill:#F1F2F2;}
</style>
<g>
	<path class="st0" d="M893.25,686.79v3171.48h995.82v-122.33h-873.49V809.12H3942.4v2926.82h-873.49v122.33h995.82V686.79H893.25z"
		/>
</g>
<g>
	<path class="st0" d="M2087.08,2461.68c-35.8,0-65.82-27.94-67.93-64.14c-2.19-37.55,26.47-69.77,64.03-71.96l417.99-24.38
		c13.4-0.78,21.31-8.55,24.83-13.12c3.54-4.59,9.09-14.28,6.42-27.57c-11.5-57.21-53.41-114.91-124.59-171.48
		c-64.32-51.12-137.22-88.88-187.05-111.56c-33.61-15.29-56.21-46.32-60.45-82.99c-4.25-36.66,10.66-72.02,39.87-94.58
		l469.29-362.46c29.77-22.99,72.54-17.5,95.53,12.27c22.99,29.77,17.5,72.54-12.27,95.53l-428.43,330.9
		c129.35,65.63,306.99,185.07,341.65,357.52c9.72,48.4-1.98,98.55-32.12,137.62c-30.09,39.01-75.56,63.03-124.75,65.89
		l-417.99,24.38C2089.76,2461.64,2088.42,2461.68,2087.08,2461.68z"/>
</g>
<g>
	<path class="st0" d="M1523.15,2879.87c-38.77,0-64.59-0.78-66.32-0.84c-37.6-1.17-67.12-32.61-65.95-70.2
		c1.17-37.6,32.66-67.12,70.2-65.95c71.82,2.23,277.41,1.85,364.9-26.28c6.23-2,22.32-14.31,43.11-47.73
		c18.52-29.78,37.03-69.82,55.01-118.98c20.9-57.15,35.92-112.69,43.79-144.21l-178.69-283.57c-20.05-31.82-10.51-73.88,21.31-93.93
		c31.83-20.05,73.88-10.51,93.93,21.31l208.77,331.31l-5.9,27.2c-0.82,3.76-20.36,93.15-55.3,188.66
		c-21.18,57.93-43.81,106.42-67.26,144.12c-35.48,57.06-73.78,91.57-117.1,105.49c-55,17.68-141.42,28.52-256.87,32.22
		C1578.22,2879.55,1548.02,2879.87,1523.15,2879.87z"/>
</g>
<g>
	<path class="st0" d="M3267.07,2364.86h-439.48c-37.62,0-68.11-30.49-68.11-68.11s30.49-68.11,68.11-68.11h369.99l55.17-76.09
		c12.66-17.46,13.9-40.82,3.16-59.52l-204.91-356.82c-18.73-32.62-7.47-74.25,25.15-92.98c32.62-18.73,74.25-7.47,92.98,25.15
		l204.91,356.82c37.4,65.13,33.08,146.5-11,207.31L3267.07,2364.86z"/>
</g>
<g>
	<path class="st0" d="M3232.32,2522.51h-404.74c-21.06,0-38.14-17.08-38.14-38.14c0-21.06,17.08-38.14,38.14-38.14h404.74
		c21.06,0,38.14,17.08,38.14,38.14C3270.46,2505.43,3253.38,2522.51,3232.32,2522.51z"/>
</g>
<g>
	<g>
		<path class="st0" d="M3086.79,1577.33h-52.54c-31.5,0-57.04-25.54-57.04-57.04v-13.13c0-31.5,25.54-57.04,57.04-57.04h52.54
			c31.5,0,57.04,25.54,57.04,57.04v13.13C3143.82,1551.79,3118.29,1577.33,3086.79,1577.33z"/>
	</g>
</g>
<g>
	<path class="st0" d="M2172.88,1337.92c-47.02,0-130.99,38.97-130.99,140.46c0,62.53,43.66,120.52,128.75,120.52
		c43.66,0,139.95-31.72,139.95-117.8C2310.59,1371.45,2224.38,1337.92,2172.88,1337.92z M2173.13,1527.8
		c-36.4,0-65.9-27.12-65.9-60.58c0-33.46,29.51-60.58,65.9-60.58c36.4,0,65.9,27.12,65.9,60.58
		C2239.04,1500.68,2209.53,1527.8,2173.13,1527.8z"/>
</g>
<g>
	<path class="st0" d="M1968.48,3669.54h32.9v234.5h-32.9V3669.54z M1990.74,3872.75h53.06c17.31,0,30.72-4.49,40.24-13.47
		c9.52-8.98,14.27-21.64,14.27-37.98v-69.03c0-16.34-4.76-29-14.27-37.98c-9.51-8.98-22.93-13.47-40.24-13.47h-53.06v-31.29h52.09
		c18.81,0,34.89,3.28,48.22,9.84c13.33,6.56,23.49,16.13,30.48,28.71c6.99,12.58,10.48,27.74,10.48,45.48v66.45
		c0,17.74-3.5,32.9-10.48,45.48c-6.99,12.58-17.18,22.15-30.56,28.71c-13.39,6.56-29.49,9.84-48.3,9.84h-51.93V3872.75z"/>
	<path class="st0" d="M2215.05,3669.54h32.9v234.5h-32.9V3669.54z M2235.53,3772.92h130.15v31.29h-130.15V3772.92z M2348.27,3669.54
		h32.9v234.5h-32.9V3669.54z"/>
	<path class="st0" d="M2505.16,3904.04h-32.9v-234.5h32.9V3904.04z"/>
	<path class="st0" d="M2596.25,3669.54h32.9v234.5h-32.9V3669.54z M2622.06,3801.14l103.54-131.61h40.48l-148.86,180.96
		L2622.06,3801.14z M2661.09,3778.89l25.97-24.03l88.87,149.18h-40.32L2661.09,3778.89z"/>
	<path class="st0" d="M2844.43,3669.38h32.9v234.66h-32.9V3669.38z M2858.78,3773.56h80c6.23,0,11.77-1.51,16.61-4.52
		c4.84-3.01,8.57-7.28,11.21-12.82c2.63-5.54,3.95-11.91,3.95-19.11c0-7.2-1.32-13.57-3.95-19.11c-2.64-5.54-6.34-9.81-11.13-12.82
		c-4.79-3.01-10.35-4.52-16.69-4.52h-80v-31.29h78.71c13.55,0,25.46,2.8,35.72,8.39c10.27,5.59,18.22,13.52,23.87,23.79
		c5.64,10.27,8.47,22.12,8.47,35.56c0,13.44-2.85,25.3-8.55,35.56c-5.7,10.27-13.68,18.2-23.95,23.79
		c-10.27,5.59-22.12,8.39-35.56,8.39h-78.71V3773.56z M2922.65,3797.59l32.74-7.42l60,113.87h-39.03L2922.65,3797.59z"/>
</g>
</svg>
